<mxfile host="Electron" modified="2022-04-15T05:48:45.990Z" agent="5.0 (X11; Linux x86_64) AppleWebKit/537.36 (KHTML, like Gecko) draw.io/15.7.3 Chrome/91.0.4472.164 Electron/13.6.1 Safari/537.36" etag="ihA-0REat0RWatNFKMNv" compressed="false" version="15.7.3" type="device">
  <diagram id="ykVG95Ilhz69s982i2kz" name="Page-1">
    <mxGraphModel dx="942" dy="725" grid="1" gridSize="10" guides="0" tooltips="1" connect="1" arrows="1" fold="1" page="1" pageScale="1" pageWidth="850" pageHeight="1100" math="0" shadow="0">
      <root>
        <mxCell id="0" />
        <mxCell id="1" parent="0" />
        <mxCell id="1ibahHNhTM8m2Xh0ROKH-30" value="" style="rounded=0;whiteSpace=wrap;html=1;fillColor=#f8cecc;strokeColor=none;" parent="1" vertex="1">
          <mxGeometry x="220" y="130" width="240" height="190" as="geometry" />
        </mxCell>
        <mxCell id="1ibahHNhTM8m2Xh0ROKH-29" value="" style="rounded=0;whiteSpace=wrap;html=1;fillColor=#dae8fc;strokeColor=none;" parent="1" vertex="1">
          <mxGeometry x="80" y="130" width="120" height="50" as="geometry" />
        </mxCell>
        <mxCell id="1ibahHNhTM8m2Xh0ROKH-1" value="Fat Executables" style="rounded=0;whiteSpace=wrap;html=1;" parent="1" vertex="1">
          <mxGeometry x="80" y="100" width="380" height="20" as="geometry" />
        </mxCell>
        <mxCell id="1ibahHNhTM8m2Xh0ROKH-3" value="Equivalence?" style="rounded=0;whiteSpace=wrap;html=1;" parent="1" vertex="1">
          <mxGeometry x="230" y="150" width="100" height="20" as="geometry" />
        </mxCell>
        <mxCell id="1ibahHNhTM8m2Xh0ROKH-4" value="" style="endArrow=classic;html=1;rounded=0;" parent="1" target="1ibahHNhTM8m2Xh0ROKH-25" edge="1">
          <mxGeometry width="50" height="50" relative="1" as="geometry">
            <mxPoint x="140" y="120" as="sourcePoint" />
            <mxPoint x="140" y="120" as="targetPoint" />
          </mxGeometry>
        </mxCell>
        <mxCell id="1ibahHNhTM8m2Xh0ROKH-7" value="" style="endArrow=classic;html=1;rounded=0;" parent="1" source="1ibahHNhTM8m2Xh0ROKH-3" target="1ibahHNhTM8m2Xh0ROKH-8" edge="1">
          <mxGeometry width="50" height="50" relative="1" as="geometry">
            <mxPoint x="280" y="160" as="sourcePoint" />
            <mxPoint x="260" y="210" as="targetPoint" />
          </mxGeometry>
        </mxCell>
        <mxCell id="1ibahHNhTM8m2Xh0ROKH-8" value="State&amp;nbsp; Transform" style="rounded=0;whiteSpace=wrap;html=1;" parent="1" vertex="1">
          <mxGeometry x="230" y="250" width="100" height="20" as="geometry" />
        </mxCell>
        <mxCell id="1ibahHNhTM8m2Xh0ROKH-9" value="Binary Translate" style="rounded=0;whiteSpace=wrap;html=1;fillColor=#dae8fc;strokeColor=#6c8ebf;" parent="1" vertex="1">
          <mxGeometry x="350" y="180" width="100" height="20" as="geometry" />
        </mxCell>
        <mxCell id="1ibahHNhTM8m2Xh0ROKH-10" value="" style="endArrow=classic;html=1;rounded=1;" parent="1" source="1ibahHNhTM8m2Xh0ROKH-3" target="1ibahHNhTM8m2Xh0ROKH-9" edge="1">
          <mxGeometry width="50" height="50" relative="1" as="geometry">
            <mxPoint x="340" y="260" as="sourcePoint" />
            <mxPoint x="390" y="210" as="targetPoint" />
            <Array as="points">
              <mxPoint x="400" y="160" />
            </Array>
          </mxGeometry>
        </mxCell>
        <mxCell id="1ibahHNhTM8m2Xh0ROKH-12" value="" style="endArrow=classic;html=1;rounded=0;" parent="1" source="1ibahHNhTM8m2Xh0ROKH-8" target="1ibahHNhTM8m2Xh0ROKH-31" edge="1">
          <mxGeometry width="50" height="50" relative="1" as="geometry">
            <mxPoint x="220" y="280" as="sourcePoint" />
            <mxPoint x="280" y="290" as="targetPoint" />
          </mxGeometry>
        </mxCell>
        <mxCell id="1ibahHNhTM8m2Xh0ROKH-16" value="ISA 1" style="text;html=1;align=center;verticalAlign=middle;resizable=0;points=[];autosize=1;strokeColor=none;fillColor=none;rotation=0;" parent="1" vertex="1">
          <mxGeometry x="80" y="130" width="40" height="20" as="geometry" />
        </mxCell>
        <mxCell id="1ibahHNhTM8m2Xh0ROKH-17" value="ISA 2" style="text;html=1;align=center;verticalAlign=middle;resizable=0;points=[];autosize=1;strokeColor=none;fillColor=none;" parent="1" vertex="1">
          <mxGeometry x="220" y="130" width="40" height="20" as="geometry" />
        </mxCell>
        <mxCell id="1ibahHNhTM8m2Xh0ROKH-18" value="" style="endArrow=classic;html=1;rounded=0;" parent="1" source="1ibahHNhTM8m2Xh0ROKH-25" target="1ibahHNhTM8m2Xh0ROKH-3" edge="1">
          <mxGeometry width="50" height="50" relative="1" as="geometry">
            <mxPoint x="170" y="150" as="sourcePoint" />
            <mxPoint x="230" y="145.26315789473682" as="targetPoint" />
          </mxGeometry>
        </mxCell>
        <mxCell id="1ibahHNhTM8m2Xh0ROKH-21" value="Equivalence" style="rounded=0;whiteSpace=wrap;html=1;" parent="1" vertex="1">
          <mxGeometry x="350" y="220" width="100" height="20" as="geometry" />
        </mxCell>
        <mxCell id="1ibahHNhTM8m2Xh0ROKH-23" value="" style="endArrow=classic;html=1;rounded=1;" parent="1" source="1ibahHNhTM8m2Xh0ROKH-9" target="1ibahHNhTM8m2Xh0ROKH-21" edge="1">
          <mxGeometry width="50" height="50" relative="1" as="geometry">
            <mxPoint x="310" y="360" as="sourcePoint" />
            <mxPoint x="360" y="310" as="targetPoint" />
          </mxGeometry>
        </mxCell>
        <mxCell id="1ibahHNhTM8m2Xh0ROKH-24" value="" style="endArrow=classic;html=1;rounded=1;" parent="1" source="1ibahHNhTM8m2Xh0ROKH-21" target="1ibahHNhTM8m2Xh0ROKH-8" edge="1">
          <mxGeometry width="50" height="50" relative="1" as="geometry">
            <mxPoint x="340" y="170" as="sourcePoint" />
            <mxPoint x="430" y="190" as="targetPoint" />
            <Array as="points">
              <mxPoint x="400" y="260" />
            </Array>
          </mxGeometry>
        </mxCell>
        <mxCell id="1ibahHNhTM8m2Xh0ROKH-25" value="Native Execute" style="rounded=0;whiteSpace=wrap;html=1;" parent="1" vertex="1">
          <mxGeometry x="90" y="150" width="100" height="20" as="geometry" />
        </mxCell>
        <mxCell id="1ibahHNhTM8m2Xh0ROKH-31" value="Native Execute" style="rounded=0;whiteSpace=wrap;html=1;" parent="1" vertex="1">
          <mxGeometry x="230" y="290" width="100" height="20" as="geometry" />
        </mxCell>
        <mxCell id="1ibahHNhTM8m2Xh0ROKH-32" value="" style="endArrow=classic;html=1;rounded=0;" parent="1" source="1ibahHNhTM8m2Xh0ROKH-31" edge="1">
          <mxGeometry width="50" height="50" relative="1" as="geometry">
            <mxPoint x="280" y="310" as="sourcePoint" />
            <mxPoint x="280" y="330" as="targetPoint" />
          </mxGeometry>
        </mxCell>
      </root>
    </mxGraphModel>
  </diagram>
</mxfile>
